<?xml version="1.0" encoding="utf-8"?>
<!-- Generator: Adobe Illustrator 23.0.3, SVG Export Plug-In . SVG Version: 6.00 Build 0)  -->
<svg version="1.1" id="Layer_1" xmlns="http://www.w3.org/2000/svg" xmlns:xlink="http://www.w3.org/1999/xlink" x="0px" y="0px"
	 viewBox="0 0 512 512" style="enable-background:new 0 0 512 512;" xml:space="preserve">
<style type="text/css">
	.st0{fill:#F5A623;}
	.st1{fill:#252525;}
</style>
<g>
	<rect x="322.4" y="187.3" class="st0" width="164.1" height="232"/>
	<rect x="115.7" y="59.6" class="st0" width="206.7" height="217.8"/>
	<rect x="115.7" y="11" class="st0" width="135.7" height="48.6"/>
	<rect x="251.4" y="11" class="st0" width="70.9" height="48.6"/>
	<rect x="115.7" y="277.4" class="st0" width="71.9" height="141.8"/>
	<rect x="187.6" y="277.4" class="st0" width="134.7" height="141.8"/>
</g>
<g>
	<path class="st1" d="M486.5,429.4c5.6,0,10.2-4.6,10.2-10.2v-232c0-5.6-4.6-10.2-10.2-10.2H332.6V11c0-5.6-4.6-10.2-10.2-10.2
		H115.7c-5.6,0-10.2,4.6-10.2,10.2v408.2c0,5.6,4.6,10.2,10.2,10.2L486.5,429.4L486.5,429.4z M312.2,69.8v197.4H125.9V69.8
		C125.9,69.8,312.2,69.8,312.2,69.8z M312.2,49.4h-50.5V21.2h50.5L312.2,49.4L312.2,49.4z M125.9,21.2h115.3v28.2H125.9V21.2z
		 M125.9,287.6h51.5V409h-51.5C125.9,409,125.9,287.6,125.9,287.6z M197.8,287.6h114.3V409H197.8V287.6z M332.6,197.5h143.7V409
		H332.6V197.5z"/>
	<path class="st1" d="M73.3,44.9c2,2,4.6,3,7.2,3s5.2-1,7.2-3c4-4,4-10.4,0-14.4L60.2,3c-4-4-10.4-4-14.4,0L18.3,30.5
		c-4,4-4,10.4,0,14.4c4,4,10.4,4,14.4,0l10.1-10.1v358.6l-10.1-10.1c-4-4-10.4-4-14.4,0c-4,4-4,10.4,0,14.4l27.5,27.5
		c2,2,4.6,3,7.2,3s5.2-1,7.2-3l27.5-27.5c4-4,4-10.4,0-14.4c-4-4-10.4-4-14.4,0l-10.1,10.1V34.8L73.3,44.9z"/>
	<path class="st1" d="M394.7,466.7H141.3l7.5-7.5c4-4,4-10.4,0-14.4c-4-4-10.4-4-14.4,0l-24.9,24.9c-4,4-4,10.4,0,14.4l24.9,24.9
		c2,2,4.6,3,7.2,3s5.2-1,7.2-3c4-4,4-10.4,0-14.4l-7.5-7.5h253.4c5.6,0,10.2-4.6,10.2-10.2S400.3,466.7,394.7,466.7z"/>
	<path class="st1" d="M436.5,466.7h-4.1c-5.6,0-10.2,4.6-10.2,10.2s4.6,10.2,10.2,10.2h4.1c5.6,0,10.2-4.6,10.2-10.2
		S442.2,466.7,436.5,466.7z"/>
	<path class="st1" d="M468.3,444.8c-4-4-10.4-4-14.4,0c-4,4-4,10.4,0,14.4l17.7,17.7l-17.7,17.7c-4,4-4,10.4,0,14.4c2,2,4.6,3,7.2,3
		s5.2-1,7.2-3l24.9-24.9c1.9-1.9,3-4.5,3-7.2s-1.1-5.3-3-7.2L468.3,444.8z"/>
</g>
</svg>
